<?xml version="1.0" encoding="UTF-8"?>
<svg version="1.1" xmlns="http://www.w3.org/2000/svg" width="297" height="189">
<path d="M0 0 C98.01 0 196.02 0 297 0 C297 59.73 297 119.46 297 181 C292.05 181 287.1 181 282 181 C282 136.12 282 91.24 282 45 C280.02 44.67 278.04 44.34 276 44 C276 89.21 276 134.42 276 181 C274.35 181 272.7 181 271 181 C270 180 270 180 269.87695217 177.72175503 C269.87787396 176.70501737 269.87879576 175.68827971 269.87974548 174.64073181 C269.87768349 172.89693993 269.87768349 172.89693993 269.87557983 171.11791992 C269.87917511 169.83111328 269.88277039 168.54430664 269.88647461 167.21850586 C269.88675648 165.85876976 269.88659875 164.4990335 269.8860321 163.13929749 C269.88574413 159.43698222 269.89164088 155.73469908 269.89860606 152.03239131 C269.90483957 148.16731219 269.9054434 144.30223242 269.90663147 140.43714905 C269.90974479 133.11315318 269.9179582 125.78917216 269.92798096 118.46518284 C269.93914206 110.12916552 269.94465254 101.79314751 269.94967639 93.45712459 C269.96014081 76.30474112 269.97774027 59.15237213 270 42 C268.02 41.67 266.04 41.34 264 41 C264.08433415 52.53518891 264.17919058 64.07023849 264.28752708 75.60522842 C264.33749903 80.96123915 264.38382909 86.31723007 264.421875 91.67333984 C264.45871631 96.84109291 264.50507329 102.00868059 264.55806351 107.17629242 C264.57661356 109.14904635 264.59171926 111.12183574 264.60334396 113.09464264 C264.62019584 115.85526001 264.64922848 118.61549811 264.68115234 121.37597656 C264.68331253 122.19381119 264.68547272 123.01164581 264.68769836 123.85426331 C264.74453444 127.69488999 264.81760614 130.74669395 267 134 C266.01 134 265.02 134 264 134 C264 149.51 264 165.02 264 181 C262.02 181 260.04 181 258 181 C258.0030162 180.41641724 258.00603241 179.83283447 258.00914001 179.23156738 C258.03379405 173.13101031 258.00945656 167.03201397 257.95727539 160.93164062 C257.94417455 158.65824078 257.94336559 156.38473428 257.95532227 154.11132812 C257.97039073 150.83357788 257.94056175 147.55876052 257.90234375 144.28125 C257.92372658 142.76827332 257.92372658 142.76827332 257.94554138 141.22473145 C257.8121543 134.65261801 256.44046914 131.29034161 251.75587463 126.63720703 C251.176436 126.09692871 250.59699738 125.55665039 250 125 C249.13375 124.0409375 248.2675 123.081875 247.375 122.09375 C246.59125 121.2378125 245.8075 120.381875 245 119.5 C241.54987493 115.71683119 238.14648057 111.90100959 234.78515625 108.0390625 C229.68147107 102.20947024 224.57020925 96.39052508 219 91 C219 94.96029326 220.2604591 95.71156585 222.9375 98.5625 C223.75863281 99.44808594 224.57976562 100.33367187 225.42578125 101.24609375 C226.27527344 102.15488281 227.12476563 103.06367187 228 104 C229.54572844 105.70465905 231.08753553 107.4128838 232.625 109.125 C233.37007812 109.95257813 234.11515625 110.78015625 234.8828125 111.6328125 C237.31594361 114.35325061 239.73807977 117.0780325 242.06323242 119.89160156 C243.93770169 122.0659637 243.93770169 122.0659637 246.29077148 123.69482422 C250.12935738 126.87895883 252.5539195 129.61803901 253.47515869 134.53723145 C254.14128148 142.05822063 253.81790236 149.59036257 253.5625 157.125 C253.51730742 159.4400264 253.47625126 161.75513746 253.43945312 164.0703125 C253.34076635 169.71540259 253.19059979 175.35730489 253 181 C232.67739909 181.0233273 212.35480088 181.04097834 192.03218937 181.05181217 C182.59673173 181.05697549 173.16128239 181.06401887 163.72583008 181.07543945 C155.50496317 181.0853852 147.28410226 181.09185317 139.0632295 181.09408849 C134.70757678 181.09539579 130.35194125 181.09848281 125.99629402 181.10573006 C121.90143386 181.11248855 117.80659808 181.11461731 113.71173286 181.11310768 C112.20441048 181.11338409 110.69708733 181.11539022 109.18976974 181.11920547 C107.14072501 181.12413999 105.09166736 181.12239819 103.0426178 181.12025452 C101.89314195 181.12117631 100.7436661 181.1220981 99.55935764 181.12304783 C97 181 97 181 96 180 C95.90608704 178.09756238 95.88256342 176.19161541 95.88647461 174.28686523 C95.88658791 172.45507973 95.88658791 172.45507973 95.88670349 170.58628845 C95.89181089 169.24372314 95.89702689 167.90115825 95.90234375 166.55859375 C95.90420801 165.19238842 95.90563187 163.82618243 95.90663147 162.4599762 C95.91045606 158.85798305 95.92028583 155.25603 95.93133545 151.65405273 C95.94155084 147.98096265 95.94618406 144.30786592 95.95117188 140.63476562 C95.96137797 133.42314163 95.98094962 126.21162785 96 119 C75.21 127.91 75.21 127.91 54 137 C53.67 151.52 53.34 166.04 53 181 C48.71 181 44.42 181 40 181 C37.96876925 178.96876925 38.74330382 174.82231134 38.68359375 172.02734375 C38.66281265 171.22970108 38.64203156 170.43205841 38.62062073 169.61024475 C38.55503842 167.05275389 38.49620033 164.4951572 38.4375 161.9375 C38.39432301 160.20767118 38.35070899 158.47785321 38.30664062 156.74804688 C38.19934828 152.4988074 38.09810574 148.2494611 38 144 C37.31897217 144.30292969 36.63794434 144.60585937 35.9362793 144.91796875 C32.85585137 146.28436176 29.77175434 147.64226757 26.6875 149 C25.61564453 149.47695312 24.54378906 149.95390625 23.43945312 150.4453125 C21.89741211 151.12207031 21.89741211 151.12207031 20.32421875 151.8125 C19.37635498 152.23144531 18.42849121 152.65039062 17.4519043 153.08203125 C15 154 15 154 12 154 C12 162.91 12 171.82 12 181 C8.7 181 5.4 181 2 181 C2 182.98 2 184.96 2 187 C99.35 187 196.7 187 297 187 C297 187.66 297 188.32 297 189 C198.99 189 100.98 189 0 189 C0 126.63 0 64.26 0 0 Z M176.375 6.33984375 C175.38185791 7.00216759 175.38185791 7.00216759 174.36865234 7.6778717 C172.96574283 8.61415386 171.56358325 9.55156051 170.16210938 10.48999023 C168.01087185 11.93022141 165.85720694 13.36676187 163.703125 14.80273438 C162.34360472 15.71072002 160.98422498 16.61891612 159.625 17.52734375 C158.97708496 17.95965805 158.32916992 18.39197235 157.66162109 18.83738708 C154.6884106 20.73838202 154.6884106 20.73838202 152 23 C149.52102466 41.79297232 149.52102466 41.79297232 154.875 59.11328125 C157.71992879 62.34801718 160.91759815 65.08746651 164.33837891 67.69677734 C166.42923681 69.33665385 168.07492919 71.19367821 169.75 73.25 C172.58529203 76.53603076 175.46792467 79.77742812 178.375 83 C179.22835937 83.94875 180.08171875 84.8975 180.9609375 85.875 C181.97027344 86.926875 181.97027344 86.926875 183 88 C183.33 88 183.66 88 184 88 C184 59.62 184 31.24 184 2 C181.48612536 2 178.48081124 4.92818496 176.375 6.33984375 Z M192 17 C191.90729647 27.34427381 191.83623316 37.6884487 191.79275131 48.0330534 C191.77188153 52.83655666 191.74357501 57.6397756 191.69824219 62.44311523 C191.6547627 67.07912297 191.63085831 71.71485733 191.62049103 76.35105324 C191.61310343 78.11930457 191.59867707 79.88754103 191.57707977 81.65567589 C191.54801727 84.13365316 191.5440451 86.61050261 191.54589844 89.08862305 C191.53151733 89.81870575 191.51713623 90.54878845 191.50231934 91.30099487 C191.54149032 96.14517532 192.61538787 98.55715804 196 102 C200.07610464 100.34192354 203.01878864 97.45848322 206.1875 94.5 C207.00637695 93.75169922 207.00637695 93.75169922 207.84179688 92.98828125 C210.81519319 90.30710825 210.81519319 90.30710825 213 87 C213.06270723 84.93632391 213.05759503 82.87046938 213.02172852 80.80615234 C213.00163223 79.50495453 212.98153595 78.20375671 212.96083069 76.86312866 C212.93363216 75.43739618 212.90632135 74.01166583 212.87890625 72.5859375 C212.85460795 71.13148733 212.83076424 69.6770295 212.80735779 68.2225647 C212.74448794 64.39200117 212.67542958 60.56157304 212.60510254 56.73114014 C212.53444524 52.82342705 212.46961271 48.91561787 212.40429688 45.0078125 C212.27524717 37.33843539 212.13966266 29.66919196 212 22 C209.69 21.67 207.38 21.34 205 21 C204.67 44.43 204.34 67.86 204 92 C202.02 92.99 200.04 93.98 198 95 C198 69.92 198 44.84 198 19 C196.02 18.34 194.04 17.68 192 17 Z M219 24 C218.86078763 31.3452676 218.75427362 38.69024942 218.68912697 46.03657055 C218.65785395 49.44811385 218.61546104 52.85875267 218.54736328 56.26977539 C218.46951184 60.19406181 218.44054837 64.11798604 218.4140625 68.04296875 C218.38309479 69.26396774 218.35212708 70.48496674 218.32022095 71.7429657 C218.31976776 72.8837709 218.31931458 74.02457611 218.31884766 75.19995117 C218.30552399 76.20144699 218.29220032 77.20294281 218.2784729 78.23478699 C218.96274755 81.95461729 218.96274755 81.95461729 225 86 C225 65.87 225 45.74 225 25 C222.03 24.505 222.03 24.505 219 24 Z M234 31 C232.35356339 35.84676149 232.44678666 40.63403028 232.5390625 45.69921875 C232.53163708 47.14022292 232.52094845 48.58121358 232.50717163 50.02217102 C232.49099487 53.03849824 232.51434359 56.05123172 232.56591797 59.06713867 C232.62834784 62.90140706 232.59269804 66.72716449 232.52662086 70.56111431 C232.48649948 73.53804928 232.49968701 76.51303012 232.52802658 79.49003029 C232.53527914 80.90078593 232.52666272 82.31172893 232.5007515 83.72226524 C232.37698768 92.35834857 233.63905473 97.73772121 239.52880859 103.96020508 C241.29790933 105.74209081 243.08295325 107.37033732 245 109 C245.33 109 245.66 109 246 109 C246 80.95 246 52.9 246 24 C241.60917024 24 236.92233948 28.1323119 234 31 Z M252 37 C251.88405478 47.32695925 251.79525854 57.65376319 251.74093914 67.98124123 C251.7148659 72.77695359 251.67950956 77.57222004 251.62280273 82.36767578 C251.56840159 86.99722032 251.53856236 91.62633645 251.52561378 96.25617599 C251.51638841 98.02083453 251.49837298 99.7854701 251.47134972 101.54994583 C251.43495027 104.02550828 251.43005899 106.49930986 251.43237305 108.97509766 C251.41439667 109.70158508 251.39642029 110.42807251 251.37789917 111.17657471 C251.43503081 116.8402669 253.12770769 119.1715019 257 123 C257.33 123 257.66 123 258 123 C258 95.28 258 67.56 258 39 C256.02 38.34 254.04 37.68 252 37 Z M142 57 C140.31011809 57.75268567 140.31011809 57.75268567 138.4921875 59 C137.76515625 59.46728516 137.038125 59.93457031 136.2890625 60.41601562 C135.49242187 60.93873047 134.69578125 61.46144531 133.875 62 C132.14376599 63.11541697 130.41196833 64.22995947 128.6796875 65.34375 C127.75768555 65.93929687 126.83568359 66.53484375 125.88574219 67.1484375 C120.95351271 70.31307611 115.97475835 73.40282458 111 76.5 C103.05619637 81.45719437 95.12771653 86.43748399 87.21606445 91.44580078 C81.90614434 94.80407816 76.58256623 98.13980587 71.25024414 101.46240234 C69.20103612 102.74207517 67.15465985 104.02629338 65.11108398 105.31494141 C60.27381125 108.36192731 55.42581447 111.35245755 50.4609375 114.1875 C34.17242643 123.69218724 21.81189485 136.35219734 9 150 C13.1574182 151.38580607 15.51777626 149.66956733 19.26171875 147.87109375 C20.35768875 147.36005096 20.35768875 147.36005096 21.47579956 146.83868408 C23.88407191 145.71403213 26.28585268 144.57622307 28.6875 143.4375 C32.05208656 141.85378883 35.41971348 140.27667672 38.7890625 138.703125 C39.64240677 138.30393356 40.49575104 137.90474213 41.37495422 137.49345398 C46.91493454 134.91902011 52.4978884 132.49254206 58.1484375 130.171875 C59.58378172 129.57505093 61.01908532 128.97812916 62.4543457 128.38110352 C64.47297235 127.54290315 66.49265717 126.71477607 68.52865601 125.91964722 C78.44329192 122.04382959 84.4393075 117.27501832 91.48727417 109.5554657 C93.15003757 107.84572334 94.90226058 106.30624537 96.71313477 104.75439453 C101.78628391 100.3872639 106.46987416 95.65485814 111.1875 90.91015625 C112.13991612 89.95587007 113.09255695 89.00180812 114.04541016 88.04795837 C116.52666925 85.5629203 119.00490791 83.07489204 121.48248291 80.58618164 C124.02162485 78.03672504 126.56367646 75.49017312 129.10546875 72.94335938 C134.07312882 67.96504369 139.03759686 62.98355629 144 58 C143.01 57.505 143.01 57.505 142 57 Z M150 62 C149.01 62.99 148.02 63.98 147 65 C148.29823475 68.81562395 149.74966858 71.07090879 152.6875 73.8125 C156.01059511 77.01030787 159.07943915 80.30692814 162.0859375 83.80078125 C164.35154569 86.40391882 166.67303552 88.95158724 169 91.5 C171.84524228 94.61907011 174.6719958 97.74755391 177.4375 100.9375 C180.95959434 104.99886237 184.60577828 108.94305706 188.26928711 112.87670898 C190.39598655 115.17556801 192.25765892 117.38648838 194 120 C196.475 119.505 196.475 119.505 199 119 C194.89758285 109.86949208 186.59535807 102.4121262 179.79956055 95.19384766 C176.55564566 91.73096024 173.46632799 88.20790999 170.5 84.5 C164.16622928 76.588673 157.19084832 69.14045138 150 62 Z M130 110 C130 110.66 130 111.32 130 112 C140.23 112.33 150.46 112.66 161 113 C161.33 125.87 161.66 138.74 162 152 C162.66 152 163.32 152 164 152 C164 138.14 164 124.28 164 110 C152.78 110 141.56 110 130 110 Z M131 117 C131 121.95 131 126.9 131 132 C134.63 132 138.26 132 142 132 C142 127.05 142 122.1 142 117 C138.37 117 134.74 117 131 117 Z M147 117 C147 121.95 147 126.9 147 132 C150.63 132 154.26 132 158 132 C158 127.05 158 122.1 158 117 C154.37 117 150.74 117 147 117 Z M205 126 C205 126.33 205 126.66 205 127 C212.92 127.33 220.84 127.66 229 128 C229.495 143.345 229.495 143.345 230 159 C230.33 159 230.66 159 231 159 C231 148.11 231 137.22 231 126 C222.42 126 213.84 126 205 126 Z M205 132 C205 135.63 205 139.26 205 143 C207.97 143 210.94 143 214 143 C214 139.37 214 135.74 214 132 C211.03 132 208.06 132 205 132 Z M218 132 C218 135.63 218 139.26 218 143 C220.97 143 223.94 143 227 143 C227 139.37 227 135.74 227 132 C224.03 132 221.06 132 218 132 Z M130 137 C130 141.95 130 146.9 130 152 C133.96 152 137.92 152 142 152 C142 147.05 142 142.1 142 137 C138.04 137 134.08 137 130 137 Z M147 137 C147 141.95 147 146.9 147 152 C150.63 152 154.26 152 158 152 C158 147.05 158 142.1 158 137 C154.37 137 150.74 137 147 137 Z M205 147 C205 150.96 205 154.92 205 159 C207.97 159 210.94 159 214 159 C214 155.04 214 151.08 214 147 C211.03 147 208.06 147 205 147 Z M218 147 C218 150.96 218 154.92 218 159 C220.97 159 223.94 159 227 159 C227 155.04 227 151.08 227 147 C224.03 147 221.06 147 218 147 Z " fill="#394A77" transform="translate(0,0)"/>
<path d="M0 0 C0.66 0.66 1.32 1.32 2 2 C4.06874034 2.6425235 4.06874034 2.6425235 6 3 C6.33 2.34 6.66 1.68 7 1 C7.99 1.99 8.98 2.98 10 4 C8.02 4 6.04 4 4 4 C4 7.63 4 11.26 4 15 C6.97 15 9.94 15 13 15 C12.94779297 13.84371094 12.94779297 13.84371094 12.89453125 12.6640625 C12.86746094 11.66117188 12.84039062 10.65828125 12.8125 9.625 C12.76029297 8.12839844 12.76029297 8.12839844 12.70703125 6.6015625 C12.85205078 5.31378906 12.85205078 5.31378906 13 4 C13.99 3.34 14.98 2.68 16 2 C16 10.58 16 19.16 16 28 C15.01 28 14.02 28 13 28 C13 25.03 13 22.06 13 19 C10.03 19 7.06 19 4 19 C4 22.3 4 25.6 4 29 C2.68 29 1.36 29 0 29 C0 25.7 0 22.4 0 19 C-2.97 19 -5.94 19 -9 19 C-9.33 17.35 -9.66 15.7 -10 14 C-6.7 14.33 -3.4 14.66 0 15 C0 11.37 0 7.74 0 4 C-2.97 4 -5.94 4 -9 4 C-9 3.67 -9 3.34 -9 3 C-6.03 2.01 -3.06 1.02 0 0 Z " fill="#39466C" transform="translate(214,128)"/>
<path d="M0 0 C0.33 0 0.66 0 1 0 C1 14.85 1 29.7 1 45 C-0.98 45 -2.96 45 -5 45 C-5 31.47 -5 17.94 -5 4 C-4.67 4 -4.34 4 -4 4 C-3.67 16.54 -3.34 29.08 -3 42 C-2.34 42 -1.68 42 -1 42 C-0.67 28.14 -0.34 14.28 0 0 Z " fill="#3A4764" transform="translate(263,136)"/>
<path d="M0 0 C0.99 0.495 0.99 0.495 2 1 C2.77811718 4.81984796 3.24386556 7.26840331 2 11 C1.91111169 12.97842761 1.88239127 14.95976634 1.88647461 16.94018555 C1.88655014 18.16122482 1.88662567 19.3822641 1.88670349 20.64030457 C1.89186478 21.95912125 1.89702606 23.27793793 1.90234375 24.63671875 C1.9042092 26.00006559 1.9056325 27.36341311 1.90663147 28.72676086 C1.91044668 32.31228491 1.92026845 35.89776835 1.93133545 39.48327637 C1.94157099 43.1431422 1.94613368 46.8030146 1.95117188 50.46289062 C1.96189162 57.64194558 1.97895607 64.8209671 2 72 C1.34 72 0.68 72 0 72 C0 48.24 0 24.48 0 0 Z " fill="#3C4865" transform="translate(246,27)"/>
<path d="M0 0 C1.32 0.33 2.64 0.66 4 1 C3.28972656 1.23299805 2.57945312 1.46599609 1.84765625 1.70605469 C-1.43152843 3.13753608 -3.52479609 4.39196998 -6 7 C-7.39582955 12.74626746 -7.17726424 18.37013314 -7 24.25 C-6.97164612 26.6144254 -6.95717644 28.97837552 -6.95068359 31.34295654 C-6.94203076 32.80997175 -6.91811602 34.27699249 -6.87744141 35.74346924 C-6.84455859 37.49581385 -6.91381346 39.24946728 -7 41 C-7.66 41.66 -8.32 42.32 -9 43 C-9 30.79 -9 18.58 -9 6 C-8.34 6 -7.68 6 -7 6 C-7 5.34 -7 4.68 -7 4 C-4.69 3.34 -2.38 2.68 0 2 C0 1.34 0 0.68 0 0 Z " fill="#3D496B" transform="translate(241,24)"/>
<path d="M0 0 C2.475 0.495 2.475 0.495 5 1 C5 5.62 5 10.24 5 15 C3.33333333 15 1.66666667 15 0 15 C0 10.05 0 5.1 0 0 Z " fill="#374469" transform="translate(142,137)"/>
<path d="M0 0 C0.2475 0.556875 0.495 1.11375 0.75 1.6875 C2.21606015 4.39971127 4.02989471 6.63587365 6 9 C4.68 9.33 3.36 9.66 2 10 C1.67 11.32 1.34 12.64 1 14 C-0.65 12.02 -2.3 10.04 -4 8 C-3.2884375 7.13375 -3.2884375 7.13375 -2.5625 6.25 C-1.0515133 4.07417916 -0.45963849 2.57397552 0 0 Z " fill="#37436D" transform="translate(251,113)"/>
<path d="M0 0 C0.66 0.33 1.32 0.66 2 1 C-1.283165 3.20047581 -4.57780589 5.38311317 -7.875 7.5625 C-8.81214844 8.19091797 -9.74929687 8.81933594 -10.71484375 9.46679688 C-11.61074219 10.05654297 -12.50664063 10.64628906 -13.4296875 11.25390625 C-14.25710449 11.80377197 -15.08452148 12.3536377 -15.93701172 12.92016602 C-16.61779785 13.27651123 -17.29858398 13.63285645 -18 14 C-18.66 13.67 -19.32 13.34 -20 13 C-18.68 12.34 -17.36 11.68 -16 11 C-16.33 9.35 -16.66 7.7 -17 6 C-15.948125 6.061875 -14.89625 6.12375 -13.8125 6.1875 C-9.72156705 5.98630658 -8.26864967 5.3224616 -5 3 C-2.3125 1.25 -2.3125 1.25 0 0 Z " fill="#39476A" transform="translate(68,102)"/>
<path d="M0 0 C0 2 0 2 -1.25 3.3125 C-1.8275 3.869375 -2.405 4.42625 -3 5 C-3.928125 6.2375 -3.928125 6.2375 -4.875 7.5 C-8.24848157 11.46880185 -12.18327382 13.21093028 -17 15 C-17 14.34 -17 13.68 -17 13 C-16.28199219 12.57074219 -15.56398438 12.14148438 -14.82421875 11.69921875 C-11.61115881 9.76604991 -9.39657591 7.5216749 -6.8125 4.8125 C-2.22031474 0 -2.22031474 0 0 0 Z " fill="#374568" transform="translate(95,107)"/>
<path d="M0 0 C4.29227942 0.46269985 6.02922065 2.90159458 8.75 6.0625 C9.94882813 7.44115234 9.94882813 7.44115234 11.171875 8.84765625 C11.77515625 9.55792969 12.3784375 10.26820312 13 11 C12.67 11.66 12.34 12.32 12 13 C10.68 12.34 9.36 11.68 8 11 C8 10.34 8 9.68 8 9 C5.68343758 5.69062512 3.79379058 3.49041773 0 2 C0 1.34 0 0.68 0 0 Z " fill="#37466C" transform="translate(166,91)"/>
<path d="M0 0 C0.66 0.33 1.32 0.66 2 1 C-0.28560647 2.5306999 -2.57762667 4.04965044 -4.875 5.5625 C-5.52597656 6.00013672 -6.17695312 6.43777344 -6.84765625 6.88867188 C-8.52625497 7.98754836 -10.26023387 9.0007818 -12 10 C-12.66 9.67 -13.32 9.34 -14 9 C-11.64326062 5.46489093 -9.77251357 4.6181197 -6 2.75 C-4.9275 2.20859375 -3.855 1.6671875 -2.75 1.109375 C-1.8425 0.74328125 -0.935 0.3771875 0 0 Z " fill="#3D486B" transform="translate(127,65)"/>
<path d="M0 0 C0.99 0.33 1.98 0.66 3 1 C-0.96 4.96 -4.92 8.92 -9 13 C-9.33 12.34 -9.66 11.68 -10 11 C-9.278125 10.29875 -8.55625 9.5975 -7.8125 8.875 C-5.00176187 6.07229255 -2.50483774 3.07737208 0 0 Z " fill="#3A476A" transform="translate(31,125)"/>
<path d="M0 0 C0.99 0.495 0.99 0.495 2 1 C2.125 7.75 2.125 7.75 1 10 C1.99 9.67 2.98 9.34 4 9 C4.66 9.66 5.32 10.32 6 11 C4.34385343 11.38218767 2.67542976 11.71395102 1 12 C0 11 0 11 -0.09765625 8.49609375 C-0.08605469 7.48675781 -0.07445312 6.47742188 -0.0625 5.4375 C-0.05347656 4.42558594 -0.04445313 3.41367188 -0.03515625 2.37109375 C-0.02355469 1.58863281 -0.01195312 0.80617187 0 0 Z " fill="#34446F" transform="translate(283,169)"/>
<path d="M0 0 C4.75 0.75 4.75 0.75 7 3 C6.625 5.125 6.625 5.125 6 7 C5.34 6.34 4.68 5.68 4 5 C4.33 4.34 4.66 3.68 5 3 C3.02 3.33 1.04 3.66 -1 4 C-0.67 2.68 -0.34 1.36 0 0 Z " fill="#314168" transform="translate(217,81)"/>
<path d="M0 0 C0.99 0.66 1.98 1.32 3 2 C-0.72965139 4.03435531 -2.66905042 5 -7 5 C-7 4.34 -7 3.68 -7 3 C-3.6875 1.375 -3.6875 1.375 0 0 Z " fill="#3C4B78" transform="translate(73,124)"/>
<path d="M0 0 C0.99 0.33 1.98 0.66 3 1 C0.03 3.97 -2.94 6.94 -6 10 C-6 6.41087588 -5.33563446 5.89142971 -3 3.3125 C-2.443125 2.68988281 -1.88625 2.06726563 -1.3125 1.42578125 C-0.879375 0.95527344 -0.44625 0.48476562 0 0 Z " fill="#394567" transform="translate(16,140)"/>
<path d="M0 0 C1.15518918 0.90484792 2.29885406 1.8244206 3.4375 2.75 C4.07558594 3.26046875 4.71367187 3.7709375 5.37109375 4.296875 C7.18810554 6.19667629 7.60423197 7.43586908 8 10 C6.84481082 9.09515208 5.70114594 8.1755794 4.5625 7.25 C3.60537109 6.48429687 3.60537109 6.48429687 2.62890625 5.703125 C0.81189446 3.80332371 0.39576803 2.56413092 0 0 Z " fill="#374367" transform="translate(237,116)"/>
<path d="M0 0 C0.66 0.33 1.32 0.66 2 1 C2 3.64 2 6.28 2 9 C1.01 9.495 1.01 9.495 0 10 C-0.74926071 6.33694766 -1.2380014 3.57644848 0 0 Z " fill="#3B4A77" transform="translate(144,140)"/>
</svg>
